<?xml version="1.0" encoding="UTF-8" standalone="no"?>
<!DOCTYPE svg PUBLIC "-//W3C//DTD SVG 1.1//EN"
 "http://www.w3.org/Graphics/SVG/1.1/DTD/svg11.dtd">
<!-- Generated by graphviz version 2.43.0 (0)
 -->
<!-- Title: %3 Pages: 1 -->
<svg width="988pt" height="238pt"
 viewBox="0.00 0.00 988.00 237.74" xmlns="http://www.w3.org/2000/svg" xmlns:xlink="http://www.w3.org/1999/xlink">
<g id="graph0" class="graph" transform="scale(1 1) rotate(0) translate(36 201.74)">
<title>%3</title>
<polygon fill="dimgray" stroke="transparent" points="-36,36 -36,-201.74 952,-201.74 952,36 -36,36"/>
<text text-anchor="middle" x="458" y="-150.54" font-family="Helvetica,sans-Serif" font-size="14.00">Sweep&#39;s Plan &amp; Progress</text>
<!-- start -->
<g id="node1" class="node">
<title>start</title>
</g>
<!-- b3835ada&#45;244c&#45;4dc2&#45;b90f&#45;867db2f61be4 -->
<g id="node3" class="node">
<title>b3835ada&#45;244c&#45;4dc2&#45;b90f&#45;867db2f61be4</title>
<ellipse fill="#0ee832" stroke="black" cx="255" cy="-99.87" rx="176.14" ry="26.74"/>
<text text-anchor="middle" x="255" y="-103.67" font-family="Helvetica,sans-Serif" font-size="14.00">✓ Modify</text>
<text text-anchor="middle" x="255" y="-88.67" font-family="Helvetica,sans-Serif" font-size="14.00">src/components/LanguageList.tsx</text>
</g>
<!-- start&#45;&gt;b3835ada&#45;244c&#45;4dc2&#45;b90f&#45;867db2f61be4 -->
<g id="edge4" class="edge">
<title>start&#45;&gt;b3835ada&#45;244c&#45;4dc2&#45;b90f&#45;867db2f61be4</title>
<path fill="none" stroke="black" d="M27.65,-99.87C30.99,-99.87 46.78,-99.87 68.62,-99.87"/>
<polygon fill="black" stroke="black" points="68.69,-103.37 78.69,-99.87 68.69,-96.37 68.69,-103.37"/>
<text text-anchor="middle" x="53.22" y="-106.67" font-family="Helvetica,sans-Serif" font-size="14.00">Start</text>
</g>
<!-- end -->
<g id="node2" class="node">
<title>end</title>
</g>
<!-- 6d5a6746&#45;ef0c&#45;45a4&#45;8ddb&#45;d524c5ed2cdb -->
<g id="node4" class="node">
<title>6d5a6746&#45;ef0c&#45;45a4&#45;8ddb&#45;d524c5ed2cdb</title>
<ellipse fill="#0ee832" stroke="black" cx="671" cy="-99.87" rx="185.94" ry="26.74"/>
<text text-anchor="middle" x="671" y="-103.67" font-family="Helvetica,sans-Serif" font-size="14.00">✓ Modify</text>
<text text-anchor="middle" x="671" y="-88.67" font-family="Helvetica,sans-Serif" font-size="14.00">src/components/LanguageListUi.tsx</text>
</g>
<!-- b3835ada&#45;244c&#45;4dc2&#45;b90f&#45;867db2f61be4&#45;&gt;6d5a6746&#45;ef0c&#45;45a4&#45;8ddb&#45;d524c5ed2cdb -->
<g id="edge2" class="edge">
<title>b3835ada&#45;244c&#45;4dc2&#45;b90f&#45;867db2f61be4&#45;&gt;6d5a6746&#45;ef0c&#45;45a4&#45;8ddb&#45;d524c5ed2cdb</title>
<path fill="none" stroke="black" d="M431.31,-99.87C445.77,-99.87 460.22,-99.87 474.67,-99.87"/>
<polygon fill="black" stroke="black" points="474.68,-103.37 484.68,-99.87 474.68,-96.37 474.68,-103.37"/>
</g>
<!-- 2d27a743&#45;673e&#45;4f08&#45;b1fd&#45;c62717508a66 -->
<g id="node5" class="node">
<title>2d27a743&#45;673e&#45;4f08&#45;b1fd&#45;c62717508a66</title>
<polygon fill="#0ee832" stroke="black" points="442,-36 0,-36 0,0 442,0 442,-36"/>
<text text-anchor="middle" x="221" y="-14.3" font-family="Helvetica,sans-Serif" font-size="14.00">✓ Run GitHub Actions for `src/components/LanguageList.tsx`</text>
</g>
<!-- b3835ada&#45;244c&#45;4dc2&#45;b90f&#45;867db2f61be4&#45;&gt;2d27a743&#45;673e&#45;4f08&#45;b1fd&#45;c62717508a66 -->
<g id="edge1" class="edge">
<title>b3835ada&#45;244c&#45;4dc2&#45;b90f&#45;867db2f61be4&#45;&gt;2d27a743&#45;673e&#45;4f08&#45;b1fd&#45;c62717508a66</title>
<path fill="none" stroke="black" stroke-dasharray="5,2" d="M243.87,-72.72C240.15,-63.99 236.01,-54.26 232.29,-45.51"/>
<polygon fill="black" stroke="black" points="235.44,-43.98 228.3,-36.15 229,-46.72 235.44,-43.98"/>
</g>
<!-- 6d5a6746&#45;ef0c&#45;45a4&#45;8ddb&#45;d524c5ed2cdb&#45;&gt;end -->
<g id="edge5" class="edge">
<title>6d5a6746&#45;ef0c&#45;45a4&#45;8ddb&#45;d524c5ed2cdb&#45;&gt;end</title>
<path fill="none" stroke="black" d="M857.18,-99.87C877.27,-99.87 894.12,-99.87 904.36,-99.87"/>
<polygon fill="black" stroke="black" points="904.37,-103.37 914.37,-99.87 904.37,-96.37 904.37,-103.37"/>
<text text-anchor="middle" x="885.73" y="-106.67" font-family="Helvetica,sans-Serif" font-size="14.00">Finish</text>
</g>
<!-- 7dabadd6&#45;2e6f&#45;455a&#45;93d5&#45;d523912b4244 -->
<g id="node6" class="node">
<title>7dabadd6&#45;2e6f&#45;455a&#45;93d5&#45;d523912b4244</title>
<polygon fill="#0ee832" stroke="black" points="916,-36 460,-36 460,0 916,0 916,-36"/>
<text text-anchor="middle" x="688" y="-14.3" font-family="Helvetica,sans-Serif" font-size="14.00">✓ Run GitHub Actions for `src/components/LanguageListUi.tsx`</text>
</g>
<!-- 6d5a6746&#45;ef0c&#45;45a4&#45;8ddb&#45;d524c5ed2cdb&#45;&gt;7dabadd6&#45;2e6f&#45;455a&#45;93d5&#45;d523912b4244 -->
<g id="edge3" class="edge">
<title>6d5a6746&#45;ef0c&#45;45a4&#45;8ddb&#45;d524c5ed2cdb&#45;&gt;7dabadd6&#45;2e6f&#45;455a&#45;93d5&#45;d523912b4244</title>
<path fill="none" stroke="black" stroke-dasharray="5,2" d="M676.57,-72.72C678.38,-64.18 680.41,-54.68 682.24,-46.08"/>
<polygon fill="black" stroke="black" points="685.69,-46.66 684.35,-36.15 678.85,-45.2 685.69,-46.66"/>
</g>
</g>
</svg>
