<?xml version="1.0" encoding="UTF-8" standalone="no"?>
<!DOCTYPE svg PUBLIC "-//W3C//DTD SVG 1.1//EN"
 "http://www.w3.org/Graphics/SVG/1.1/DTD/svg11.dtd">
<!-- Generated by graphviz version 2.43.0 (0)
 -->
<!-- Title: %3 Pages: 1 -->
<svg width="986pt" height="238pt"
 viewBox="0.00 0.00 985.50 237.74" xmlns="http://www.w3.org/2000/svg" xmlns:xlink="http://www.w3.org/1999/xlink">
<g id="graph0" class="graph" transform="scale(1 1) rotate(0) translate(36 201.74)">
<title>%3</title>
<polygon fill="dimgray" stroke="transparent" points="-36,36 -36,-201.74 949.5,-201.74 949.5,36 -36,36"/>
<text text-anchor="middle" x="456.75" y="-150.54" font-family="Helvetica,sans-Serif" font-size="14.00">Sweep&#39;s Plan &amp; Progress</text>
<!-- start -->
<g id="node1" class="node">
<title>start</title>
</g>
<!-- b3835ada&#45;244c&#45;4dc2&#45;b90f&#45;867db2f61be4 -->
<g id="node3" class="node">
<title>b3835ada&#45;244c&#45;4dc2&#45;b90f&#45;867db2f61be4</title>
<ellipse fill="yellow" stroke="black" cx="254" cy="-99.87" rx="176.14" ry="26.74"/>
<text text-anchor="middle" x="254" y="-103.67" font-family="Helvetica,sans-Serif" font-size="14.00">⋯ Modify</text>
<text text-anchor="middle" x="254" y="-88.67" font-family="Helvetica,sans-Serif" font-size="14.00">src/components/LanguageList.tsx</text>
</g>
<!-- start&#45;&gt;b3835ada&#45;244c&#45;4dc2&#45;b90f&#45;867db2f61be4 -->
<g id="edge4" class="edge">
<title>start&#45;&gt;b3835ada&#45;244c&#45;4dc2&#45;b90f&#45;867db2f61be4</title>
<path fill="none" stroke="black" d="M26.65,-99.87C29.99,-99.87 45.78,-99.87 67.62,-99.87"/>
<polygon fill="black" stroke="black" points="67.69,-103.37 77.69,-99.87 67.69,-96.37 67.69,-103.37"/>
<text text-anchor="middle" x="52.22" y="-106.67" font-family="Helvetica,sans-Serif" font-size="14.00">Start</text>
</g>
<!-- end -->
<g id="node2" class="node">
<title>end</title>
</g>
<!-- 6d5a6746&#45;ef0c&#45;45a4&#45;8ddb&#45;d524c5ed2cdb -->
<g id="node4" class="node">
<title>6d5a6746&#45;ef0c&#45;45a4&#45;8ddb&#45;d524c5ed2cdb</title>
<ellipse fill="white" stroke="black" cx="669" cy="-99.87" rx="185.94" ry="26.74"/>
<text text-anchor="middle" x="669" y="-103.67" font-family="Helvetica,sans-Serif" font-size="14.00">▶ Modify</text>
<text text-anchor="middle" x="669" y="-88.67" font-family="Helvetica,sans-Serif" font-size="14.00">src/components/LanguageListUi.tsx</text>
</g>
<!-- b3835ada&#45;244c&#45;4dc2&#45;b90f&#45;867db2f61be4&#45;&gt;6d5a6746&#45;ef0c&#45;45a4&#45;8ddb&#45;d524c5ed2cdb -->
<g id="edge2" class="edge">
<title>b3835ada&#45;244c&#45;4dc2&#45;b90f&#45;867db2f61be4&#45;&gt;6d5a6746&#45;ef0c&#45;45a4&#45;8ddb&#45;d524c5ed2cdb</title>
<path fill="none" stroke="black" d="M430.29,-99.87C444.43,-99.87 458.56,-99.87 472.69,-99.87"/>
<polygon fill="black" stroke="black" points="472.98,-103.37 482.98,-99.87 472.98,-96.37 472.98,-103.37"/>
</g>
<!-- 2d27a743&#45;673e&#45;4f08&#45;b1fd&#45;c62717508a66 -->
<g id="node5" class="node">
<title>2d27a743&#45;673e&#45;4f08&#45;b1fd&#45;c62717508a66</title>
<polygon fill="white" stroke="black" points="440,-36 0,-36 0,0 440,0 440,-36"/>
<text text-anchor="middle" x="220" y="-14.3" font-family="Helvetica,sans-Serif" font-size="14.00">▶ Run GitHub Actions for `src/components/LanguageList.tsx`</text>
</g>
<!-- b3835ada&#45;244c&#45;4dc2&#45;b90f&#45;867db2f61be4&#45;&gt;2d27a743&#45;673e&#45;4f08&#45;b1fd&#45;c62717508a66 -->
<g id="edge1" class="edge">
<title>b3835ada&#45;244c&#45;4dc2&#45;b90f&#45;867db2f61be4&#45;&gt;2d27a743&#45;673e&#45;4f08&#45;b1fd&#45;c62717508a66</title>
<path fill="none" stroke="black" stroke-dasharray="5,2" d="M242.87,-72.72C239.15,-63.99 235.01,-54.26 231.29,-45.51"/>
<polygon fill="black" stroke="black" points="234.44,-43.98 227.3,-36.15 228,-46.72 234.44,-43.98"/>
</g>
<!-- 6d5a6746&#45;ef0c&#45;45a4&#45;8ddb&#45;d524c5ed2cdb&#45;&gt;end -->
<g id="edge5" class="edge">
<title>6d5a6746&#45;ef0c&#45;45a4&#45;8ddb&#45;d524c5ed2cdb&#45;&gt;end</title>
<path fill="none" stroke="black" d="M855.18,-99.87C875.27,-99.87 892.12,-99.87 902.36,-99.87"/>
<polygon fill="black" stroke="black" points="902.37,-103.37 912.37,-99.87 902.37,-96.37 902.37,-103.37"/>
<text text-anchor="middle" x="883.73" y="-106.67" font-family="Helvetica,sans-Serif" font-size="14.00">Finish</text>
</g>
<!-- 7dabadd6&#45;2e6f&#45;455a&#45;93d5&#45;d523912b4244 -->
<g id="node6" class="node">
<title>7dabadd6&#45;2e6f&#45;455a&#45;93d5&#45;d523912b4244</title>
<polygon fill="white" stroke="black" points="913.5,-36 458.5,-36 458.5,0 913.5,0 913.5,-36"/>
<text text-anchor="middle" x="686" y="-14.3" font-family="Helvetica,sans-Serif" font-size="14.00">▶ Run GitHub Actions for `src/components/LanguageListUi.tsx`</text>
</g>
<!-- 6d5a6746&#45;ef0c&#45;45a4&#45;8ddb&#45;d524c5ed2cdb&#45;&gt;7dabadd6&#45;2e6f&#45;455a&#45;93d5&#45;d523912b4244 -->
<g id="edge3" class="edge">
<title>6d5a6746&#45;ef0c&#45;45a4&#45;8ddb&#45;d524c5ed2cdb&#45;&gt;7dabadd6&#45;2e6f&#45;455a&#45;93d5&#45;d523912b4244</title>
<path fill="none" stroke="black" stroke-dasharray="5,2" d="M674.57,-72.72C676.38,-64.18 678.41,-54.68 680.24,-46.08"/>
<polygon fill="black" stroke="black" points="683.69,-46.66 682.35,-36.15 676.85,-45.2 683.69,-46.66"/>
</g>
</g>
</svg>
